<?xml version="1.0" encoding="UTF-8"?>
<svg id="Layer_2" data-name="Layer 2" xmlns="http://www.w3.org/2000/svg" viewBox="0 0 731.49 802.79">
  <defs>
    <style>
      .cls-1 {
        fill: #f9f9ee;
      }

      .cls-1, .cls-2, .cls-3, .cls-4, .cls-5, .cls-6, .cls-7, .cls-8, .cls-9, .cls-10, .cls-11, .cls-12 {
        stroke-width: 0px;
      }

      .cls-2 {
        fill: #2c3a4b;
      }

      .cls-3 {
        fill: #293641;
      }

      .cls-4 {
        fill: #293642;
      }

      .cls-5 {
        fill: #2b3541;
      }

      .cls-6 {
        fill: #2b3642;
      }

      .cls-7 {
        fill: #2a3640;
      }

      .cls-8 {
        fill: #283440;
      }

      .cls-9 {
        fill: #424b55;
      }

      .cls-10 {
        fill: #202930;
      }

      .cls-11 {
        fill: #fdfcf6;
      }

      .cls-12 {
        fill: #ebe9df;
      }
    </style>
  </defs>
  <g id="Layer_1-2" data-name="Layer 1">
    <path class="cls-1" d="m646.61,778.62H77.97c-43.06,0-77.97-34.91-77.97-77.97V109.95C0,66.89,34.91,31.98,77.97,31.98h568.65c43.06,0,77.97,34.91,77.97,77.97v590.7c0,43.06-34.91,77.97-77.97,77.97Z"/>
    <path class="cls-4" d="m173.3,644.7c3.54-.54,7.02-.86,10.5-.86,116.72.01,233.44.05,350.17.1,1.61,0,3.23.14,5.19.23,0,3.66,0,6.95.11,10.68,0,.82-.1,1.19-.4,2.01-.66,1.13-1.12,1.8-1.57,2.47-9.59-.02-19.19-.14-28.78-.02-4.06.05-8.12.62-12.73.68-.86-.36-1.17-.46-1.49-.55-15.49-.06-30.97-.16-46.46-.16-88.12,0-176.23.03-264.35.06q-10.02,0-10.97-10.63c.38-.8.47-1.09.57-1.39.05-.75.11-1.5.21-2.62Z"/>
    <path class="cls-12" d="m273.29,701.31c-5.73-.63-11.47-1.26-17.97-1.95-1.52-.06-2.28-.06-3.03-.06,0,0-.5-.01-.96-.27-1.32-.41-2.18-.56-3.05-.71-1.98-.54-3.97-1.08-5.95-1.62-.02-.64-.04-1.27-.06-1.91,4.79-.83,9.58-2.35,14.38-2.39,61.59-.49,123.17-.84,184.76-1,7.75-.02,15.52,1.08,23.23,2.09,2.05.27,3.9,2.09,5.32,3.5-4.24,1.3-7.96,2.3-11.68,3.31-14.54.97-29.08,1.94-43.62,2.91-.66.04-1.33.07-2,.08-25.46.33-50.91.84-76.37.92-14.29.05-28.59-.45-42.87-1-5.1-.19-10.16-1.24-16.09-1.91-1.92,0-2.99,0-4.05,0Z"/>
    <path class="cls-10" d="m174.36,597.29c-.05-36.29-.12-72.58-.13-108.87-.02-100.06-.02-200.13-.11-300.65-.03-1.53.03-2.6,0-4.07-.03-.84.03-1.28.49-2.07,1.16-.59,1.92-.84,2.68-1.09h75.22c0,105.75,0,211.3-.4,317.01-.54-1.81-.81-3.79-.81-5.76-.02-100.94-.02-201.88-.03-302.83q0-6.65-6.83-6.65c-20.49,0-40.98,0-61.46-.01q-6.7,0-6.7,6.78c0,97.94,0,195.89.01,293.83,0,36.31.02,72.63-.09,108.94,0,1.82-1.2,3.63-1.85,5.45Z"/>
    <path class="cls-1" d="m723.29,376.49c.03-3.55,1.81-5.17,4.72-4.65,3.8.68,3.84,4.08,3.09,6.71-.5,1.73-2.72,4.18-4.17,4.18-3.28,0-3.97-2.88-3.64-6.24Z"/>
    <path class="cls-1" d="m458.3,700.7c3.71-1.4,7.43-2.4,11.56-3.42-.2,2.24,3.44,5.73-.71,6.68-3.72.85-7.97.84-10.85-3.27Z"/>
    <path class="cls-1" d="m325.33,796.37c2.01.53,4.01.94,5.26,2.12.45.42-.52,3.17-1.54,4.04-.69.59-3.58.08-3.77-.51-.55-1.67-.23-3.63.06-5.66Z"/>
    <path class="cls-1" d="m267.72,2.61c1.55-1.16,2.96-2.54,4.43-2.61.89-.04,2.54,1.88,2.64,3.03.1,1.11-1.1,2.96-2.17,3.42-3.1,1.3-4.5-.65-4.9-3.83Z"/>
    <path class="cls-1" d="m273.33,701.67c1.03-.36,2.1-.36,3.57-.35.2,1.3,0,2.6-.21,3.89-.44.08-.88.16-1.32.24-.67-1.14-1.33-2.28-2.04-3.78Z"/>
    <path class="cls-11" d="m537.36,659.65c.4-.99.86-1.66,1.57-2.51-.18.92,1.78,3.41-1.57,2.51Z"/>
    <path class="cls-1" d="m248.34,698.64c.81-.17,1.67-.02,2.75.39-.76.15-1.72.04-2.75-.39Z"/>
    <path class="cls-1" d="m252.34,699.63c.7-.33,1.45-.33,2.58-.32-.59.22-1.56.43-2.58.32Z"/>
    <path class="cls-1" d="m494.44,659.64c.18-.1.49,0,.9.35-.24.22-.52.08-.9-.35Z"/>
    <path class="cls-11" d="m172.91,647.45c.09.16,0,.46-.35.83-.18-.22-.05-.48.35-.83Z"/>
    <path class="cls-8" d="m174.26,597.74c.74-2.26,1.94-4.08,1.94-5.89.11-36.31.09-72.62.09-108.94,0-97.94,0-195.89-.01-293.83q0-6.78,6.7-6.78c20.49,0,40.98,0,61.46.01q6.82,0,6.83,6.65c0,100.94,0,201.88.03,302.83,0,1.98.27,3.95.71,6.22.43,10.65.57,21,.73,31.36.03,1.89-.54,4.25,3.24,4.45,2.42.76,4.31,1.36,6.19,1.36,91.67.05,183.34.05,275.05.48.51,2.82.98,5.22,1.45,7.61.12,7.38.23,14.76-.11,22.75-.73,2.35-1.22,4.09-1.23,5.84-.08,12.46-.06,24.93-.54,37.41-2.46.02-4.46-.09-6.44.05-4.37.31-8.72.74-13.08,1.12-6.01.06-12.02.11-18.77-.25-4.22-.22-7.72-.02-11.21.18-1.7.08-3.4.15-5.83-.13-5.79-.53-10.84-.69-16.4-.89-9.39-.04-18.29-.1-27.19,0-1.53.02-3.06.67-4.59,1.03-1.71.07-3.42.15-5.8-.18-2.84-.21-5.02-.01-7.2.19-3.69.08-7.38.16-11.8-.19-7.89-.2-15.05.01-22.21.23-8.66.08-17.33.15-26.75-.14-4.26-.17-7.77.02-11.28.21-27.67.04-55.35.08-83.73-.29-3.22-.22-5.72-.02-8.23.18-23.02.08-46.03.16-69.78-.19-4.21-.59-7.69-.76-11.21-1.22-.36-.75-.68-1.21-1-1.67-.04-3.04-.08-6.08-.02-9.56Z"/>
    <path class="cls-3" d="m448.38,443.32c-.06-10.04-.12-20.08.19-30.88.49-2.08.72-3.4.72-4.71.02-32.14.09-64.28-.06-96.43-.02-3.96,1.12-5.13,5.07-5.07,15.49.21,30.98.17,46.46.02,3.45-.03,4.65.99,4.6,4.53-.19,11.65-.07,23.31-.07,34.97,0,50.63-.03,101.26.04,151.88,0,3.57-.07,5.87-4.87,5.78-15.48-.3-30.98-.23-46.46-.04-3.79.05-4.82-1.18-4.78-4.86.17-16.65.1-33.31.03-49.96,0-1.75-.57-3.49-.87-5.23Z"/>
    <path class="cls-5" d="m422.17,309.81c-3.85,3.92-7.68,7.85-11.57,11.74-3.95,3.95-7.28,7.8-8.57,13.89-1.86,8.79-9.03,13.5-17.68,14.72-8.75,1.23-15.83-2.6-19.97-10.33-2.01-3.75-4.26-4.6-8.12-4.55-13.16.19-26.32.03-39.48,0-1.62,0-3.23,0-5.29,0v169h-18V180.47h17.73v136.78c3.27,0,6.04,0,8.8,0,13.83,0,27.66.06,41.48-.07,1.81-.02,4.07-.53,5.32-1.69,7.39-6.83,15.5-7.72,24.45-3.69.74.34,1.51.63,3.31,1.37,8.59-8.83,17.38-17.87,26.45-26.71-1.05,2.96-2.96,5.61-3.53,8.53-.63,3.24-1.16,5.11-4.85,2.71q1.21,10.08,9.52,12.1Z"/>
    <path class="cls-7" d="m351.37,503.31c0-28.8-.02-57.61-.02-86.41,0-13.46,0-26.92,0-40.68h58.72c0,42.6,0,85.16-.65,127.63-11.95-.21-23.25-.34-34.55-.41-.53,0-1.07.66-1.61,1.02-2.02.08-4.05.16-6.73-.18-2.52-.24-4.39-.05-6.26.14-.43.08-.87.15-1.87-.19-2.72-.59-4.87-.76-7.02-.92Z"/>
    <path class="cls-6" d="m469.47,237.82c7.34-7.65,14.69-15.31,23.02-23.99h-27.86v-18.23h61.04v55.71h-17.87v-25.18c-8.44,7.88-15.89,14.84-23.79,21.46.45-5.79-2.58-8.67-7.31-9.83-2.27-.56-4.81,0-7.23.05m16.13-10.02c-.33.53-.66,1.07-.99,1.6.27.13.54.26.8.39.2-.52.4-1.04.19-1.99Z"/>
    <path class="cls-2" d="m469.48,237.84c2.41-.07,4.95-.63,7.22-.07,4.73,1.17,7.75,4.04,6.99,9.98.12.48.08.46-.3.22-5.35-.68-6.17.43-5.84,7.1-13.26,13.25-26.51,26.5-39.78,39.74-3.52,3.51-7.09,6.97-11.39,10.48-3.76.09-6.09.66-4.19,4.5,0,0-.04-.01-.02,0q-8.3-2-9.51-12.08c3.69,2.4,4.22.53,4.85-2.71.57-2.91,2.49-5.56,3.82-8.74,11.38-11.87,22.76-23.33,34.83-34.91,1.49-1.16,2.28-2.21,3.07-3.26,1.78-1.87,3.55-3.74,6-5.68,5.66,1.42,5.54-1.12,4.25-4.59,0,0,.03.03.02.01Z"/>
    <path class="cls-10" d="m448.31,443.78c.38,1.28.94,3.03.95,4.77.07,16.65.14,33.31-.03,49.96-.04,3.68.99,4.9,4.78,4.86,15.49-.19,30.98-.26,46.46.04,4.79.09,4.87-2.21,4.87-5.78-.07-50.63-.04-101.26-.04-151.88,0-11.66-.11-23.32.07-34.97.06-3.54-1.14-4.56-4.6-4.53-15.49.15-30.98.19-46.46-.02-3.95-.05-5.09,1.12-5.07,5.07.14,32.14.08,64.28.06,96.43,0,1.31-.23,2.63-.63,4.25-.41-34.82-.54-69.95-.66-105.08,0-.64.18-1.28.32-2.19h58.29v199.7h-58.37c0-20.04,0-40.1.07-60.62Z"/>
    <path class="cls-9" d="m537.19,535.24c-91.67,0-183.34,0-275.01-.06-1.88,0-3.77-.6-5.78-1.29,30.49-.34,61.11-.28,91.73-.29,61.92-.03,123.84-.12,185.76-.08,1.69,0,3.38,1.29,4.72,2.22-.7,0-1.06-.25-1.41-.5Z"/>
    <path class="cls-10" d="m537.25,609.26c.01-12.46,0-24.93.08-37.39.01-1.74.5-3.48,1.11-5.38.44,2.54.53,5.24.62,8.84.08,8.92.17,16.95.26,24.98-.07,1.07-.13,2.15-.2,4.01-.12,2.42-.24,4.05-.61,5.54-.44-.16-.63-.18-.93-.3-.11-.1-.33-.29-.33-.29Z"/>
    <path class="cls-1" d="m539.71,600.2c-.48-7.93-.57-15.96-.55-24.44.78.33,2,1.11,2.02,1.92.13,6.96.07,13.93-.02,20.9,0,.51-.69,1.02-1.44,1.63Z"/>
    <path class="cls-10" d="m373.71,504.56c.07-.46.61-1.12,1.15-1.12,11.3.06,22.6.2,34.19.64-11.43.41-23.15.5-35.33.48Z"/>
    <path class="cls-9" d="m465.55,609.37c5.06.17,10.12.34,15.48.79-4.79.35-9.9.43-15.32.11-.27-.56-.21-.73-.16-.9Z"/>
    <path class="cls-10" d="m465.05,609.35c.44.2.39.37.27.81-10.42.31-20.77.35-31.59.31,1.07-.45,2.6-1.11,4.13-1.12,8.9-.09,17.8-.03,27.19,0Z"/>
    <path class="cls-10" d="m517.71,610.55c3.91-.49,8.26-.93,12.63-1.23,1.98-.14,3.99-.03,6.44-.05.46-.01.68.18.83.42.22.46.38.59.79.46.33-.1.49-.02.64.05-6.96.15-13.91.31-21.33.35Z"/>
    <path class="cls-6" d="m477.85,254.88c-.63-6.49.19-7.59,5.55-6.9-1.48,2.4-3.36,4.56-5.55,6.9Z"/>
    <path class="cls-9" d="m348.61,610.62c3.13-.32,6.64-.51,10.45-.41-3.16.37-6.62.45-10.45.41Z"/>
    <path class="cls-10" d="m386.72,610.52c6.7-.32,13.86-.54,21.3-.44-6.76.39-13.8.47-21.3.44Z"/>
    <path class="cls-6" d="m469.23,238.01c1.53,3.29,1.65,5.83-3.71,4.29.91-1.4,2.19-2.75,3.71-4.29Z"/>
    <path class="cls-10" d="m537.22,535.67c.32-.17.68.08,1.22.45.28,2.18.38,4.25.35,6.74-.59-1.97-1.06-4.37-1.57-7.19Z"/>
    <path class="cls-1" d="m538.77,609.99c.12-1.63.23-3.26.46-5.29,3.2,1.37,3,3.36.16,5.5-.49-.08-.65-.15-.8-.07,0,.16.19-.14.19-.14Z"/>
    <path class="cls-5" d="m422.42,309.62c-2.14-3.67.19-4.24,3.62-4.27-.85,1.38-2.11,2.74-3.62,4.27Z"/>
    <path class="cls-10" d="m487.73,610.46c3.04-.29,6.54-.49,10.31-.39-3.1.36-6.48.42-10.31.39Z"/>
    <path class="cls-10" d="m175.32,609.27c3.48.17,6.96.34,10.72.81-3.11.37-6.5.44-10.37.21-.48-.3-.6-.77-.54-.83.06-.06.19-.19.19-.19Z"/>
    <path class="cls-10" d="m256.71,610.48c2.07-.3,4.57-.49,7.33-.4-2.13.36-4.51.43-7.33.4Z"/>
    <path class="cls-10" d="m351.43,503.74c2.09-.26,4.24-.09,6.65.38-2.03.22-4.31.13-6.65-.38Z"/>
    <path class="cls-10" d="m420.71,610.47c1.75-.29,3.92-.48,6.35-.39-1.81.36-3.86.42-6.35.39Z"/>
    <path class="cls-10" d="m360.68,504.52c1.44-.29,3.31-.48,5.42-.37-1.51.35-3.25.41-5.42.37Z"/>
    <path class="cls-6" d="m458.92,248.23c-.49.92-1.28,1.97-2.47,3,.46-.97,1.32-1.92,2.47-3Z"/>
    <path class="cls-9" d="m176.95,180.42c-.42.36-1.18.61-2.25.88.43-.32,1.17-.66,2.25-.88Z"/>
    <path class="cls-10" d="m174.19,607.63c.42.13.74.59,1.1,1.34.03.29-.09.42-.37.42-.28,0-.73-.06-.73-.06-.03-.46-.05-.91.01-1.7Z"/>
    <path class="cls-9" d="m174.14,609.67c.04-.34.49-.28.71-.21.22.06.34.53.36.77-.36.09-.73-.07-1.07-.56Z"/>
    <path class="cls-2" d="m485.8,228.02c0,.73-.2,1.26-.4,1.78-.27-.13-.54-.26-.8-.39.33-.53.66-1.07,1.2-1.38Z"/>
    <path class="cls-9" d="m538.51,609.85c.25.14.06.44-.12.46-.41-.03-.56-.16-.67-.52.16-.12.35-.1.79.06Z"/>
  </g>
</svg>